# xmcd
#
# Track frame offsets: 
#        150
#        13450
#        31262
#        45350
#        60337
#        79692
#        97690
#        116562
#        131925
#        165877
#        201672
#        230955
#        260650
#
# Disc length: 3873 seconds
#
# Revision: 1
# Processed by: cddbd v1.5.2PL0 Copyright (c) Steve Scherf et al.
# Submitted via: ExactAudioCopy v0.99pb5
#
DISCID=ac0f1f0d
DTITLE=Coo Coo - Fun Bun
DYEAR=1990
DGENRE=Electronic
TTITLE0=Upside Down
TTITLE1=You Can Set Me Free
TTITLE2=All You Need Is Love
TTITLE3=Wild In The City
TTITLE4=Upside Down (Reprise)
TTITLE5=Happy Days
TTITLE6=Daydream
TTITLE7=Uiah Eiah
TTITLE8=Medley With - Upside Down - You Can Set Me Free - Happy Days -
TTITLE8=All You Need Is Love
TTITLE9=Upside Down (Full Power D.J. Mix)
TTITLE10=You Can Set Me Free (Dance Version)
TTITLE11=All You Need Is Love (Extended)
TTITLE12=Happy Days (Happy Club Mix)
EXTD=YEAR: 1990
EXTT0=
EXTT1=
EXTT2=
EXTT3=
EXTT4=
EXTT5=
EXTT6=
EXTT7=
EXTT8=
EXTT9=
EXTT10=
EXTT11=
EXTT12=
PLAYORDER=
